<svg width="21" height="12" viewBox="0 0 21 12" fill="none" xmlns="http://www.w3.org/2000/svg">
<path d="M14.62 0.209986C14.5165 0.128028 14.3977 0.0673822 14.2707 0.0315488C14.1436 -0.00428465 14.0107 -0.0145963 13.8796 0.00120858C13.7485 0.0170135 13.6218 0.0586224 13.5069 0.123634C13.392 0.188645 13.2911 0.275772 13.21 0.379986L6.20999 9.37999L2.77999 5.19999C2.69954 5.09289 2.59839 5.00305 2.48255 4.9358C2.3667 4.86854 2.23853 4.82525 2.10563 4.80848C1.97273 4.79172 1.83782 4.80182 1.70891 4.8382C1.57999 4.87457 1.4597 4.93648 1.35516 5.02024C1.25063 5.104 1.16399 5.20791 1.10039 5.32579C1.03679 5.44368 0.997516 5.57314 0.984908 5.7065C0.9723 5.83985 0.986613 5.97438 1.027 6.1021C1.06738 6.22982 1.13301 6.34812 1.21999 6.44999L5.38999 11.63C5.48411 11.746 5.60303 11.8395 5.73801 11.9035C5.87299 11.9675 6.0206 12.0005 6.16999 12C6.32857 12.0071 6.48656 11.9763 6.63088 11.9102C6.77521 11.8441 6.90174 11.7447 6.99999 11.62L14.83 1.61999C14.9098 1.51401 14.9678 1.39321 15.0004 1.26462C15.0331 1.13603 15.0399 1.00223 15.0203 0.870998C15.0008 0.739768 14.9553 0.61374 14.8866 0.500255C14.8179 0.386771 14.7272 0.288098 14.62 0.209986ZM19.62 0.209986C19.5165 0.128028 19.3977 0.0673822 19.2707 0.0315488C19.1436 -0.00428465 19.0107 -0.0145963 18.8796 0.00120858C18.7485 0.0170135 18.6218 0.0586224 18.5069 0.123634C18.392 0.188645 18.2911 0.275772 18.21 0.379986L11.21 9.37999L10.6 8.62999L9.33999 10.25L10.44 11.62C10.5341 11.736 10.653 11.8295 10.788 11.8935C10.923 11.9575 11.0706 11.9905 11.22 11.99C11.3702 11.9893 11.5183 11.9548 11.6534 11.889C11.7884 11.8232 11.9069 11.7278 12 11.61L19.83 1.60999C19.9083 1.50432 19.9649 1.38426 19.9967 1.25667C20.0285 1.12908 20.0349 0.99647 20.0154 0.866431C19.9959 0.736391 19.9509 0.611475 19.8831 0.498833C19.8152 0.386192 19.7258 0.288037 19.62 0.209986Z" fill="#FF0000"/>
</svg>
